<?xml version="1.0" encoding="utf-8"?>
<!-- Generator: Adobe Illustrator 23.0.1, SVG Export Plug-In . SVG Version: 6.00 Build 0)  -->
<svg version="1.1" id="Layer_1" xmlns="http://www.w3.org/2000/svg" xmlns:xlink="http://www.w3.org/1999/xlink" x="0px" y="0px"
	 viewBox="0 0 1024 1024" style="enable-background:new 0 0 1024 1024;" xml:space="preserve">
<style type="text/css">
	.st0{clip-path:url(#SVGID_2_);fill:#1C0120;}
	.st1{opacity:0.14;clip-path:url(#SVGID_2_);}
</style>
<g>
	<defs>
		<rect id="SVGID_1_" x="-0.3" y="-0.3" width="1024" height="1024"/>
	</defs>
	<clipPath id="SVGID_2_">
		<use xlink:href="#SVGID_1_"  style="overflow:visible;"/>
	</clipPath>
	<rect x="-111.8" y="-111.8" class="st0" width="1247" height="1247"/>
	<g class="st1">
		<g>
			<path d="M627.8,426v-38.3h-279v38.5c0.2,0,0.3,0,0.5,0c9.4,0,17,7.6,17,17s-7.6,17-17,17c-0.2,0-0.3,0-0.5,0v38.5h279V460
				c-9.2-0.3-16.5-7.8-16.5-17S618.6,426.3,627.8,426z"/>
			<path d="M648.4,469.3l-13.7-35.7l-260.5,99.8l13.8,36c0.2-0.1,0.3-0.1,0.5-0.2c8.8-3.4,18.6,1,22,9.8c3.4,8.8-1,18.6-9.8,22
				c-0.2,0.1-0.3,0.1-0.5,0.2l13.8,36l260.5-99.8L660.5,501c-8.6,3-18.2-1.3-21.5-10C635.7,482.4,639.9,472.8,648.4,469.3z"/>
		</g>
		<g>
			<path d="M883.8,170v-38.3h-279v38.5c0.2,0,0.3,0,0.5,0c9.4,0,17,7.6,17,17s-7.6,17-17,17c-0.2,0-0.3,0-0.5,0v38.5h279V204
				c-9.2-0.3-16.5-7.8-16.5-17S874.6,170.3,883.8,170z"/>
			<path d="M904.4,213.3l-13.7-35.7l-260.5,99.8l13.8,36c0.2-0.1,0.3-0.1,0.5-0.2c8.8-3.4,18.6,1,22,9.8s-1,18.6-9.8,22
				c-0.2,0.1-0.3,0.1-0.5,0.2l13.8,36l260.5-99.8L916.5,245c-8.6,3-18.2-1.3-21.5-10C891.7,226.4,895.9,216.8,904.4,213.3z"/>
		</g>
		<g>
			<path d="M371.8,170v-38.3h-279v38.5c0.2,0,0.3,0,0.5,0c9.4,0,17,7.6,17,17s-7.6,17-17,17c-0.2,0-0.3,0-0.5,0v38.5h279V204
				c-9.2-0.3-16.5-7.8-16.5-17S362.6,170.3,371.8,170z"/>
			<path d="M392.4,213.3l-13.7-35.7l-260.5,99.8l13.8,36c0.2-0.1,0.3-0.1,0.5-0.2c8.8-3.4,18.6,1,22,9.8s-1,18.6-9.8,22
				c-0.2,0.1-0.3,0.1-0.5,0.2l13.8,36l260.5-99.8L404.5,245c-8.6,3-18.2-1.3-21.5-10S383.9,216.8,392.4,213.3z"/>
		</g>
		<g>
			<path d="M115.8,425v-38.3h-279v38.5c0.2,0,0.3,0,0.5,0c9.4,0,17,7.6,17,17s-7.6,17-17,17c-0.2,0-0.3,0-0.5,0v38.5h279V459
				c-9.2-0.3-16.5-7.8-16.5-17S106.6,425.3,115.8,425z"/>
			<path d="M136.4,468.3l-13.7-35.7l-260.5,99.8l13.8,36c0.2-0.1,0.3-0.1,0.5-0.2c8.8-3.4,18.6,1,22,9.8c3.4,8.8-1,18.6-9.8,22
				c-0.2,0.1-0.3,0.1-0.5,0.2l13.8,36l260.5-99.8L148.5,500c-8.6,3-18.2-1.3-21.5-10C123.7,481.4,127.9,471.8,136.4,468.3z"/>
		</g>
		<g>
			<path d="M1139.8-87v-38.3h-279v38.5c0.2,0,0.3,0,0.5,0c9.4,0,17,7.6,17,17s-7.6,17-17,17c-0.2,0-0.3,0-0.5,0v38.5h279V-53
				c-9.2-0.3-16.5-7.8-16.5-17S1130.6-86.7,1139.8-87z"/>
			<path d="M1160.4-41.7l-13.7-35.7L886.1,22.3l13.8,36c0.2-0.1,0.3-0.1,0.5-0.2c8.8-3.4,18.6,1,22,9.8s-1,18.6-9.8,22
				c-0.2,0.1-0.3,0.1-0.5,0.2l13.8,36l260.5-99.8L1172.5-10c-8.6,3-18.2-1.3-21.5-10S1151.9-38.2,1160.4-41.7z"/>
		</g>
		<g>
			<path d="M627.8-87v-38.3h-279v38.5c0.2,0,0.3,0,0.5,0c9.4,0,17,7.6,17,17s-7.6,17-17,17c-0.2,0-0.3,0-0.5,0v38.5h279V-53
				c-9.2-0.3-16.5-7.8-16.5-17S618.6-86.7,627.8-87z"/>
			<path d="M648.4-43.7l-13.7-35.7L374.1,20.3l13.8,36c0.2-0.1,0.3-0.1,0.5-0.2c8.8-3.4,18.6,1,22,9.8c3.4,8.8-1,18.6-9.8,22
				c-0.2,0.1-0.3,0.1-0.5,0.2l13.8,36l260.5-99.8L660.5-12c-8.6,3-18.2-1.3-21.5-10C635.7-30.6,639.9-40.2,648.4-43.7z"/>
		</g>
		<g>
			<path d="M1139.8,425v-38.3h-279v38.5c0.2,0,0.3,0,0.5,0c9.4,0,17,7.6,17,17s-7.6,17-17,17c-0.2,0-0.3,0-0.5,0v38.5h279V459
				c-9.2-0.3-16.5-7.8-16.5-17S1130.6,425.3,1139.8,425z"/>
			<path d="M1160.4,468.3l-13.7-35.7l-260.5,99.8l13.8,36c0.2-0.1,0.3-0.1,0.5-0.2c8.8-3.4,18.6,1,22,9.8c3.4,8.8-1,18.6-9.8,22
				c-0.2,0.1-0.3,0.1-0.5,0.2l13.8,36l260.5-99.8l-13.9-36.2c-8.6,3-18.2-1.3-21.5-10S1151.9,471.8,1160.4,468.3z"/>
		</g>
		<g>
			<path d="M884.8,682v-38.3h-279v38.5c0.2,0,0.3,0,0.5,0c9.4,0,17,7.6,17,17s-7.6,17-17,17c-0.2,0-0.3,0-0.5,0v38.5h279V716
				c-9.2-0.3-16.5-7.8-16.5-17S875.6,682.3,884.8,682z"/>
			<path d="M905.4,725.3l-13.7-35.7l-260.5,99.8l13.8,36c0.2-0.1,0.3-0.1,0.5-0.2c8.8-3.4,18.6,1,22,9.8c3.4,8.8-1,18.6-9.8,22
				c-0.2,0.1-0.3,0.1-0.5,0.2l13.8,36l260.5-99.8L917.5,757c-8.6,3-18.2-1.3-21.5-10C892.7,738.4,896.9,728.8,905.4,725.3z"/>
		</g>
		<g>
			<path d="M1139.8,939v-38.3h-279v38.5c0.2,0,0.3,0,0.5,0c9.4,0,17,7.6,17,17s-7.6,17-17,17c-0.2,0-0.3,0-0.5,0v38.5h279V973
				c-9.2-0.3-16.5-7.8-16.5-17S1130.6,939.3,1139.8,939z"/>
			<path d="M1160.4,982.3l-13.7-35.7l-260.5,99.8l13.8,36c0.2-0.1,0.3-0.1,0.5-0.2c8.8-3.4,18.6,1,22,9.8s-1,18.6-9.8,22
				c-0.2,0.1-0.3,0.1-0.5,0.2l13.8,36l260.5-99.8l-13.9-36.2c-8.6,3-18.2-1.3-21.5-10C1147.7,995.4,1151.9,985.8,1160.4,982.3z"/>
		</g>
		<g>
			<path d="M627.8,937v-38.3h-279v38.5c0.2,0,0.3,0,0.5,0c9.4,0,17,7.6,17,17s-7.6,17-17,17c-0.2,0-0.3,0-0.5,0v38.5h279V971
				c-9.2-0.3-16.5-7.8-16.5-17S618.6,937.3,627.8,937z"/>
			<path d="M648.4,980.3l-13.7-35.7l-260.5,99.8l13.8,36c0.2-0.1,0.3-0.1,0.5-0.2c8.8-3.4,18.6,1,22,9.8c3.4,8.8-1,18.6-9.8,22
				c-0.2,0.1-0.3,0.1-0.5,0.2l13.8,36l260.5-99.8l-13.9-36.2c-8.6,3-18.2-1.3-21.5-10C635.7,993.4,639.9,983.8,648.4,980.3z"/>
		</g>
		<g>
			<path d="M371.8,682v-38.3h-279v38.5c0.2,0,0.3,0,0.5,0c9.4,0,17,7.6,17,17s-7.6,17-17,17c-0.2,0-0.3,0-0.5,0v38.5h279V716
				c-9.2-0.3-16.5-7.8-16.5-17S362.6,682.3,371.8,682z"/>
			<path d="M392.4,725.3l-13.7-35.7l-260.5,99.8l13.8,36c0.2-0.1,0.3-0.1,0.5-0.2c8.8-3.4,18.6,1,22,9.8c3.4,8.8-1,18.6-9.8,22
				c-0.2,0.1-0.3,0.1-0.5,0.2l13.8,36l260.5-99.8L404.5,757c-8.6,3-18.2-1.3-21.5-10C379.7,738.4,383.9,728.8,392.4,725.3z"/>
		</g>
		<g>
			<path d="M115.8,939v-38.3h-279v38.5c0.2,0,0.3,0,0.5,0c9.4,0,17,7.6,17,17s-7.6,17-17,17c-0.2,0-0.3,0-0.5,0v38.5h279V973
				c-9.2-0.3-16.5-7.8-16.5-17S106.6,939.3,115.8,939z"/>
			<path d="M136.4,982.3l-13.7-35.7l-260.5,99.8l13.8,36c0.2-0.1,0.3-0.1,0.5-0.2c8.8-3.4,18.6,1,22,9.8c3.4,8.8-1,18.6-9.8,22
				c-0.2,0.1-0.3,0.1-0.5,0.2l13.8,36l260.5-99.8l-13.9-36.2c-8.6,3-18.2-1.3-21.5-10C123.7,995.4,127.9,985.8,136.4,982.3z"/>
		</g>
		<g>
			<path d="M115.8-85v-38.3h-279v38.5c0.2,0,0.3,0,0.5,0c9.4,0,17,7.6,17,17s-7.6,17-17,17c-0.2,0-0.3,0-0.5,0v38.5h279V-51
				c-9.2-0.3-16.5-7.8-16.5-17S106.6-84.7,115.8-85z"/>
			<path d="M136.4-41.7l-13.7-35.7l-260.5,99.8l13.8,36c0.2-0.1,0.3-0.1,0.5-0.2c8.8-3.4,18.6,1,22,9.8c3.4,8.8-1,18.6-9.8,22
				c-0.2,0.1-0.3,0.1-0.5,0.2l13.8,36l260.5-99.8L148.5-10c-8.6,3-18.2-1.3-21.5-10C123.7-28.6,127.9-38.2,136.4-41.7z"/>
		</g>
	</g>
</g>
</svg>
