<svg id="Layer_1" data-name="Layer 1" xmlns="http://www.w3.org/2000/svg" viewBox="0 0 1024 773.51"><defs><style>.cls-1{fill:#0c000e;}</style></defs><title>ticket2</title><path class="cls-1" d="M1020.52,268.08H1024V0H0V270.25A118.46,118.46,0,0,1,111.06,395.69,118.47,118.47,0,0,1,0,506.76V773.51H1024V505h-3.48a118.47,118.47,0,0,1,0-236.93ZM615.91,541.55H408.09V510.78a185.36,185.36,0,0,1,33.62-49.47q20.82-22,45.44-43.79,18.47-16.56,30.3-27.45a168.12,168.12,0,0,0,18.46-19.41,56.39,56.39,0,0,0,9.47-17.52q2.83-9,2.84-22.24,0-44-55.86-44a179.27,179.27,0,0,0-37.64,4A235.09,235.09,0,0,0,419,301.55V245.21a238.94,238.94,0,0,1,41.9-9.7A310.71,310.71,0,0,1,506.56,232q53,0,79.76,26.27t26.75,71.24q0,31.25-15.39,53.26t-40,43.31q-19.41,17.06-36.92,32.9a185.2,185.2,0,0,0-29.35,33.38h124.5Z"/></svg>